<svg xmlns="http://www.w3.org/2000/svg" xmlns:xlink="http://www.w3.org/1999/xlink" viewBox="0 0 180 270">
  <defs>
    <style>
      .cls-1 {
        opacity: 0.13;
      }

      .cls-2 {
        isolation: isolate;
      }

      .cls-3 {
        mask: url(#mask);
      }

      .cls-4 {
        fill: #4bab86;
      }

      .cls-5 {
        fill: #3c8466;
      }

      .cls-6 {
        fill: #ed7439;
      }

      .cls-7 {
        fill: #704c3f;
      }

      .cls-8 {
        fill: #ec6a2b;
      }

      .cls-9 {
        fill: #3e8b6f;
      }

      .cls-10 {
        fill: #65c49d;
      }

      .cls-11 {
        fill: url(#linear-gradient);
      }

      .cls-12 {
        fill: #fff9e9;
      }

      .cls-13 {
        fill: #fc6;
      }

      .cls-14 {
        fill: none;
        stroke: #fc6;
        stroke-miterlimit: 10;
        stroke-width: 0.15px;
      }

      .cls-15 {
        filter: url(#luminosity-invert-noclip);
      }
    </style>
    <filter id="luminosity-invert-noclip" x="-544.997" y="-57.627" width="724.997" height="365.517" filterUnits="userSpaceOnUse" color-interpolation-filters="sRGB">
      <feColorMatrix values="-1 0 0 0 1 0 -1 0 0 1 0 0 -1 0 1 0 0 0 1 0" result="invert"/>
      <feFlood flood-color="#fff" result="bg"/>
      <feBlend in="invert" in2="bg"/>
    </filter>
    <mask id="mask" x="-544.997" y="-57.627" width="724.997" height="365.517" maskUnits="userSpaceOnUse">
      <g class="cls-15">
        <image class="cls-1" width="1920" height="1281" transform="translate(-544.997 -57.627) scale(0.313 0.285)" xlink:href="../../../Downloads/abstract-3182661_1920.jpg"/>
      </g>
    </mask>
    <linearGradient id="linear-gradient" x1="7.249" y1="135" x2="160.996" y2="135" gradientUnits="userSpaceOnUse">
      <stop offset="0" stop-color="#fff"/>
      <stop offset="0" stop-color="#704c3f"/>
      <stop offset="1" stop-color="#4f2619"/>
      <stop offset="1" stop-color="#393939"/>
    </linearGradient>
  </defs>
  <title>sides</title>
  <g id="Layer_2" data-name="Layer 2">
    <g id="Artboard_1" data-name="Artboard 1" class="cls-2">
      <g class="cls-3">
        <g id="Layer_7" data-name="Layer 7">
          <g>
            <g>
              <path class="cls-4" d="M169.643,156.712a26.77,26.77,0,0,1,4.095-4.272A28.666,28.666,0,0,1,180,148.463l-.042.381-.031.36A13.78,13.78,0,0,1,176.9,155.4a10.99,10.99,0,0,1-1.681,1.2,12.064,12.064,0,0,1-5.045,1.546Z"/>
              <path class="cls-5" d="M56.217,168.854a27.094,27.094,0,0,0,6.176,7.834,7,7,0,0,0,1.533,1.018,6.924,6.924,0,0,0,1.884.6c-.189-.536-.335-.973-.435-1.276-.108-.325-.182-.558-.312-.931,0,0-.141-.405-.29-.8a27.561,27.561,0,0,0-1.99-4.039,12.535,12.535,0,0,0-6.1-4.616Q56.449,167.748,56.217,168.854Z"/>
              <path class="cls-4" d="M83.171,98.965a35.025,35.025,0,0,0-6.026-.588,44.661,44.661,0,0,0-8.406.717,14.627,14.627,0,0,0-2.879.834,17.805,17.805,0,0,0-3.045,1.582c.666.254,1.2.467,1.567.618.394.16.673.279,1.134.456,0,0,.5.193,1.01.371a30.917,30.917,0,0,0,5.8,1.268c1.589.117,5.542.117,11.886-2.829Q83.693,100.179,83.171,98.965Z"/>
              <path class="cls-5" d="M150.088,106.442a37.207,37.207,0,0,1,4.67,3.468,35.52,35.52,0,0,1,5.025,5.39,8.622,8.622,0,0,1,1.149,2.058,8.1,8.1,0,0,1,.536,2.429c-.7-.315-1.269-.564-1.666-.734-.423-.183-.728-.31-1.214-.528,0,0-.529-.237-1.047-.483a38.642,38.642,0,0,1-5.178-3.085,15.806,15.806,0,0,1-5.342-8.276Z"/>
              <path class="cls-4" d="M144.474,105.005a27.347,27.347,0,0,0-4.7-4.955,28.243,28.243,0,0,0-7.29-4.319l.034.481.023.455a15.846,15.846,0,0,0,3.351,7.538,10.9,10.9,0,0,0,1.952,1.332,12.336,12.336,0,0,0,5.939,1.363Z"/>
              <path class="cls-4" d="M166.123,85.464a25.733,25.733,0,0,1,2.026-5.476,27.375,27.375,0,0,1,4.138-6.023l.117.366.118.343a13.534,13.534,0,0,1-.256,6.838,10.55,10.55,0,0,1-1.056,1.742,11.627,11.627,0,0,1-4.01,3.327Z"/>
              <path class="cls-5" d="M141.643,157.534a34.83,34.83,0,0,1,1.415-5.511,34.309,34.309,0,0,1,3.1-6.6,8.72,8.72,0,0,1,3.588-3.294c-.019.744-.025,1.346-.028,1.764,0,.447,0,.766-.012,1.282,0,0-.012.562-.037,1.117a35.7,35.7,0,0,1-.847,5.8,15.793,15.793,0,0,1-5.715,8.042Z"/>
              <path class="cls-6" d="M149.424,125.265c2.23,5.121-2.717,11.737-7.936,12.025-3.867.214-6.516-3.122-6.679-3.334-2.731-3.55-2.695-9.675,1.507-12.48C140.787,118.492,147.523,120.9,149.424,125.265Z"/>
              <path class="cls-4" d="M36.53,165.327a26.528,26.528,0,0,0-3.155-5.985,27.383,27.383,0,0,0-5.825-6.037l-.1.472-.1.445a15.62,15.62,0,0,0,1.135,8.125,10.52,10.52,0,0,0,1.511,1.786,12.1,12.1,0,0,0,5.344,2.842Z"/>
              <path class="cls-4" d="M33.323,144.149a22.41,22.41,0,0,1,5.562,9.737l-.333-.094-.316-.082a12.566,12.566,0,0,1-5.008-3.436,8.784,8.784,0,0,1-.781-1.559,9.177,9.177,0,0,1-.5-4.355Z"/>
              <path class="cls-4" d="M114.406,9.915a22.835,22.835,0,0,0-2.672-3.047,27.62,27.62,0,0,0-4.383-3.4,8.687,8.687,0,0,0-1.751-.837,10.222,10.222,0,0,0-2.152-.5c.215.441.382.8.5,1.05.123.267.207.459.356.766,0,0,.161.334.331.661a20.832,20.832,0,0,0,2.274,3.324c.72.783,2.638,2.568,6.97,3.8Q114.142,10.825,114.406,9.915Z"/>
              <path class="cls-4" d="M151.7,76.157a35.1,35.1,0,0,1,5.314-2.79,40.829,40.829,0,0,1,7.764-2.375,12.356,12.356,0,0,1,2.792-.232,14.027,14.027,0,0,1,3.113.446c-.545.495-.978.9-1.277,1.184-.319.3-.545.522-.921.867,0,0-.411.374-.829.736a32.716,32.716,0,0,1-4.957,3.379c-1.41.7-4.984,2.147-11.389,1.565Z"/>
              <path class="cls-6" d="M141.78,96.927c-.676,3.74,3.244,8.408,7.777,8.457a7.861,7.861,0,0,0,5.884-2.937c2.456-3.175,1.935-8.09-.8-10.2C150.72,89.22,142.631,92.221,141.78,96.927Z"/>
              <path class="cls-4" d="M148.148,22.7a41.8,41.8,0,0,0-4.716-5.653,48.992,48.992,0,0,0-7.736-6.3A14.962,14.962,0,0,0,132.6,9.192a17.408,17.408,0,0,0-3.8-.922c.38.819.676,1.485.878,1.949.216.5.366.85.627,1.419,0,0,.285.62.585,1.228a38.908,38.908,0,0,0,4.013,6.164c1.272,1.452,4.656,4.764,12.3,7.047Q147.681,24.391,148.148,22.7Z"/>
              <path class="cls-4" d="M151.687,17.57a37.269,37.269,0,0,1,20.625-7.4l-.27.693-.242.661s-2.787,6.167-8.055,9.382a14.444,14.444,0,0,1-3.275.94,16.445,16.445,0,0,1-8.718-1.113Z"/>
              <path class="cls-4" d="M72.16,10.843a19.389,19.389,0,0,1,1.6-2.63,18.973,18.973,0,0,1,2.618-2.935,4.728,4.728,0,0,1,1.046-.722,4.618,4.618,0,0,1,1.285-.43c-.128.382-.228.691-.3.907s-.124.4-.212.661c0,0-.1.288-.2.571A20,20,0,0,1,76.64,9.134a8.631,8.631,0,0,1-4.163,3.279Z"/>
              <path class="cls-4" d="M16.828,49.274a19.293,19.293,0,0,0-1.6-2.631,18.956,18.956,0,0,0-2.617-2.934,4.786,4.786,0,0,0-1.046-.723,4.583,4.583,0,0,0-1.286-.429c.129.381.229.691.3.907s.124.4.213.66c0,0,.1.289.2.572a19.836,19.836,0,0,0,1.358,2.868,8.62,8.62,0,0,0,4.163,3.28Z"/>
              <path class="cls-6" d="M73.514,27.457c0,4.555-3.859,8.781-8.174,8.888a7.443,7.443,0,0,1-6.183-3.087c-3.308-4.9,1.1-14.323,6.183-14.689C68.922,18.311,73.512,22.492,73.514,27.457Z"/>
              <path class="cls-4" d="M19.027,108.751a27.245,27.245,0,0,1,4.7-4.956,28.227,28.227,0,0,1,7.29-4.319l-.035.481-.023.455a15.851,15.851,0,0,1-3.35,7.538,10.9,10.9,0,0,1-1.952,1.332,12.342,12.342,0,0,1-5.94,1.363Z"/>
              <path class="cls-4" d="M136.513,119.332a43,43,0,0,1,10.114,2.188,42.167,42.167,0,0,1,11.167,5.874l-.67.312-.628.307a25.9,25.9,0,0,1-12.58,1.395,16.457,16.457,0,0,1-3.225-1.444,17.365,17.365,0,0,1-6.209-6.374Z"/>
              <path class="cls-4" d="M75.047,36.421A28.732,28.732,0,0,0,68.4,34.4a29.07,29.07,0,0,0-8.557-.227l.28.4.257.383a16.733,16.733,0,0,0,6.82,4.912,11.238,11.238,0,0,0,2.383.212,12.3,12.3,0,0,0,5.851-1.68Z"/>
              <path class="cls-4" d="M73.357,20.7a39.322,39.322,0,0,1,3.826-5.411,41.854,41.854,0,0,1,6.275-6.035,11.6,11.6,0,0,1,2.508-1.486,12.385,12.385,0,0,1,3.081-.884c-.309.785-.548,1.422-.712,1.866-.176.474-.3.814-.509,1.359,0,0-.231.592-.475,1.174a38.513,38.513,0,0,1-3.255,5.9c-1.032,1.39-3.777,4.559-9.98,6.745Z"/>
              <path class="cls-7" d="M110.212,146.9c1.134.437,2.882,1.133,4.981,2.06,6.469,2.857,8.666,4.571,13.308,6.444a55.346,55.346,0,0,0,8.987,2.752l35.871.58-.768,4.082-3.839,1.108-36.858-.554a46.808,46.808,0,0,1-9.6-3.326,33.2,33.2,0,0,0-6.812-2.846,25.5,25.5,0,0,0-4.479-.757Q110.609,151.668,110.212,146.9Z"/>
              <polygon class="cls-7" points="118.631 91.026 143.48 83.279 162.074 66.45 165.417 61.995 160.996 62.985 146.646 76.511 136.618 81.547 124.276 86.002 120.305 86.519 118.631 91.026"/>
              <path class="cls-7" d="M167.217,90.626,113.99,144.084l-3.66.829-.591-11.821,57.478-49.4"/>
              <path class="cls-7" d="M57.392,127.964s-3.056,5.794-8.713,7.036l-23.656,9.9,5.4,1.733,4.114-1.733,14.142-6.434L56.136,135s9.7-4.479,16.549-3.722S57.392,127.964,57.392,127.964Z"/>
              <path class="cls-7" d="M93.582,144.465a68.14,68.14,0,0,1-7.647,6.035,72.81,72.81,0,0,1-24.047,10.491l-14.914,5.693s-7.2.839-11.571-1.313l-13.885,1.474,3.343,4.788h24.17c12.088-4.7,24.546-10.1,37.244-16.334q4.317-2.12,8.494-4.277a13.64,13.64,0,0,0-1.187-6.557Z"/>
              <path class="cls-8" d="M57.263,68.075c0,4.555-3.859,8.781-8.174,8.888a7.443,7.443,0,0,1-6.183-3.087c-3.308-4.9,1.1-14.323,6.183-14.689C52.671,58.929,57.261,63.11,57.263,68.075Z"/>
              <path class="cls-8" d="M128.432,52.9c.711,3.93-3.409,8.837-8.173,8.888a8.264,8.264,0,0,1-6.184-3.087c-2.581-3.337-2.035-8.5.843-10.724C119.037,44.8,127.538,47.956,128.432,52.9Z"/>
              <path class="cls-8" d="M73.663,75.168c-.711,3.93,3.409,8.836,8.173,8.888a8.264,8.264,0,0,0,6.184-3.087c2.582-3.337,2.035-8.5-.843-10.724C83.059,67.067,74.557,70.221,73.663,75.168Z"/>
              <path class="cls-8" d="M112.934,30.493c2.23,5.122-2.718,11.738-7.937,12.026-3.867.214-6.515-3.122-6.678-3.334-2.732-3.55-2.7-9.675,1.507-12.48C104.3,23.72,111.033,26.127,112.934,30.493Z"/>
              <path class="cls-6" d="M149.517,57.832c.71,3.931-3.41,8.837-8.174,8.889a8.267,8.267,0,0,1-6.184-3.087c-2.581-3.337-2.034-8.5.844-10.724C140.121,49.732,148.622,52.886,149.517,57.832Z"/>
              <path class="cls-6" d="M120.839,92.427c-.71,3.931,3.41,8.837,8.174,8.888a8.264,8.264,0,0,0,6.184-3.086c2.581-3.337,2.034-8.5-.844-10.724C130.235,84.327,121.734,87.481,120.839,92.427Z"/>
              <path class="cls-8" d="M176,100.607c.783,4.332-3.758,9.74-9.009,9.8a9.107,9.107,0,0,1-6.816-3.4c-2.845-3.678-2.242-9.372.93-11.82C165.643,91.678,175.013,95.155,176,100.607Z"/>
              <path class="cls-8" d="M21.28,78.954c-.783,4.332,3.758,9.74,9.009,9.8a9.109,9.109,0,0,0,6.816-3.4c2.845-3.678,2.242-9.372-.93-11.819C31.636,70.026,22.266,73.5,21.28,78.954Z"/>
              <path class="cls-8" d="M162.074,37.808c2.788,6.4-3.4,14.674-9.923,15.035-4.834.267-8.146-3.9-8.35-4.168-3.415-4.439-3.37-12.1,1.884-15.6C151.275,29.34,159.7,32.348,162.074,37.808Z"/>
              <path class="cls-5" d="M161.278,94.045a36.389,36.389,0,0,1,4.237-2.114,31.124,31.124,0,0,1,5.529-1.743,6.358,6.358,0,0,1,1.747-.136,4.842,4.842,0,0,1,1.675.406c-.515.381-.93.7-1.217.914-.308.234-.526.4-.884.669,0,0-.388.289-.777.568a39.577,39.577,0,0,1-4.254,2.585,12.5,12.5,0,0,1-7.367,1.042Z"/>
              <path class="cls-4" d="M80.044,38.721A26.748,26.748,0,0,1,83.7,33.006a27.7,27.7,0,0,1,6.323-5.554l.06.479.065.451a15.663,15.663,0,0,1-1.827,8.008,10.649,10.649,0,0,1-1.659,1.66,12.2,12.2,0,0,1-5.57,2.408Z"/>
              <path class="cls-4" d="M69.035,56.819a19.492,19.492,0,0,0-1.6-2.63,18.973,18.973,0,0,0-2.618-2.935,4.728,4.728,0,0,0-1.046-.722,4.618,4.618,0,0,0-1.285-.43c.128.382.228.691.3.907.073.231.123.4.212.661,0,0,.1.288.2.571a19.889,19.889,0,0,0,1.358,2.869,8.62,8.62,0,0,0,4.163,3.279Z"/>
              <path class="cls-4" d="M74.531,62.724a32.674,32.674,0,0,1,2.689-4.431,31.937,31.937,0,0,1,4.409-4.942,7.983,7.983,0,0,1,1.762-1.218,7.726,7.726,0,0,1,2.165-.723c-.217.642-.385,1.164-.5,1.527-.123.388-.209.667-.358,1.113,0,0-.162.486-.333.962a33.562,33.562,0,0,1-2.288,4.833,14.53,14.53,0,0,1-7.013,5.524Q74.8,64.046,74.531,62.724Z"/>
              <path class="cls-6" d="M73.73,138.744c.71,3.93-3.41,8.836-8.173,8.888a8.264,8.264,0,0,1-6.184-3.087c-2.582-3.337-2.035-8.5.843-10.724C64.334,130.643,72.836,133.8,73.73,138.744Z"/>
              <path class="cls-6" d="M20.942,118.809c.711,3.931-3.409,8.837-8.173,8.888a8.257,8.257,0,0,1-6.184-3.087c-2.581-3.337-2.035-8.5.843-10.723C11.547,110.709,20.048,113.863,20.942,118.809Z"/>
              <path class="cls-8" d="M31.819,126.692c0,5.682-4.814,10.954-10.2,11.087a9.286,9.286,0,0,1-7.715-3.85c-4.126-6.115,1.368-17.868,7.715-18.325C26.09,115.282,31.816,120.5,31.819,126.692Z"/>
              <path class="cls-4" d="M119.036,77.754a35.077,35.077,0,0,0-5.315-2.79,40.843,40.843,0,0,0-7.763-2.375,12.362,12.362,0,0,0-2.792-.232,14.028,14.028,0,0,0-3.114.446c.545.5.978.9,1.277,1.184.32.3.545.522.922.867,0,0,.41.374.828.736a32.716,32.716,0,0,0,4.957,3.379c1.41.7,4.984,2.147,11.39,1.565Z"/>
              <path class="cls-4" d="M65.762,9.459a19.456,19.456,0,0,0-1.6-2.631,19.008,19.008,0,0,0-2.618-2.934A4.761,4.761,0,0,0,60.5,3.171a4.634,4.634,0,0,0-1.285-.429c.129.381.229.691.3.907s.124.395.212.66c0,0,.1.289.2.572A20,20,0,0,0,61.282,7.75a8.636,8.636,0,0,0,4.164,3.279Z"/>
              <path class="cls-4" d="M115.335,36.829a40.925,40.925,0,0,1,5.216-5.131,52.085,52.085,0,0,1,8.477-5.654,17.168,17.168,0,0,1,3.363-1.36,21.164,21.164,0,0,1,4.106-.754c-.43.752-.765,1.364-.994,1.789-.245.455-.415.782-.711,1.3,0,0-.322.569-.661,1.126a36.159,36.159,0,0,1-4.472,5.627c-1.405,1.316-5.127,4.3-13.4,6.218Q115.795,38.412,115.335,36.829Z"/>
              <path class="cls-4" d="M112.044,22.247a27.345,27.345,0,0,0-4.7-4.956,28.235,28.235,0,0,0-7.29-4.318l.034.48.024.456a15.851,15.851,0,0,0,3.35,7.538,10.893,10.893,0,0,0,1.952,1.331,12.331,12.331,0,0,0,5.939,1.364Z"/>
              <path class="cls-4" d="M116.5,13.608a21.4,21.4,0,0,1,3.4-3.318,22.8,22.8,0,0,1,5.129-3.014l-.044.306-.034.289a11.075,11.075,0,0,1-2.587,4.9,8.731,8.731,0,0,1-1.381.917,9.6,9.6,0,0,1-4.089,1.092Z"/>
              <path class="cls-4" d="M125.916,72.153a21.361,21.361,0,0,1,3.4-3.319,22.747,22.747,0,0,1,5.129-3.013l-.044.305-.034.29a11.069,11.069,0,0,1-2.587,4.9,8.8,8.8,0,0,1-1.381.918,9.607,9.607,0,0,1-4.089,1.091Z"/>
              <path class="cls-4" d="M158.6,9.518a20,20,0,0,1,2.473-1.9,19.725,19.725,0,0,1,3.541-1.83,4.927,4.927,0,0,1,1.246-.311,4.652,4.652,0,0,1,1.36.045c-.263.311-.472.566-.617.743s-.264.326-.445.543c0,0-.2.235-.4.464a20.708,20.708,0,0,1-2.341,2.205,8.924,8.924,0,0,1-5.111,1.615Z"/>
              <path class="cls-9" d="M69.241,60.681a29.634,29.634,0,0,0-4.636-1.951A34.263,34.263,0,0,0,57.961,57.3a10.225,10.225,0,0,0-2.342,0,11.683,11.683,0,0,0-2.558.589c.492.374.883.682,1.153.9.289.23.493.4.833.657,0,0,.37.283.746.555a27.549,27.549,0,0,0,4.383,2.467c1.227.483,4.312,1.44,9.6.507Q69.509,61.826,69.241,60.681Z"/>
              <path class="cls-9" d="M31.876,63.51a40.674,40.674,0,0,1,2.794-6.733,47.367,47.367,0,0,1,5.483-8.206,14.489,14.489,0,0,1,2.484-2.355,16.99,16.99,0,0,1,3.352-1.951c-.115.89-.2,1.61-.248,2.111-.056.534-.091.916-.169,1.534,0,0-.084.672-.186,1.338a38.025,38.025,0,0,1-1.966,7.025c-.775,1.746-3.005,5.865-9.624,10.2Z"/>
              <path class="cls-4" d="M156.579,67.24a18.808,18.808,0,0,0-.022-3.047,18.124,18.124,0,0,0-.751-3.8,4.5,4.5,0,0,0-.533-1.128,4.369,4.369,0,0,0-.892-.989c-.086.392-.16.709-.212.929s-.1.4-.158.674c0,0-.066.3-.124.591a19.523,19.523,0,0,0-.307,3.138,8.18,8.18,0,0,0,1.912,4.84Z"/>
              <path class="cls-9" d="M146.087,75.817a18.8,18.8,0,0,0-.022-3.046,18.1,18.1,0,0,0-.751-3.8,4.487,4.487,0,0,0-.533-1.129,4.361,4.361,0,0,0-.892-.988c-.085.392-.159.709-.212.928-.055.235-.1.4-.157.675,0,0-.066.3-.124.59a19.519,19.519,0,0,0-.308,3.139A8.192,8.192,0,0,0,145,77.027Z"/>
              <path class="cls-4" d="M57.253,161.427a27.074,27.074,0,0,1-4.221-5.342,26.339,26.339,0,0,1-3.1-7.678l.485.119.461.1a16.939,16.939,0,0,1,7.1,4.525,10.291,10.291,0,0,1,1.011,2.088,11.08,11.08,0,0,1,.327,5.868Z"/>
              <path class="cls-4" d="M50.052,76.143A28.268,28.268,0,0,1,56.14,72.87a28.938,28.938,0,0,1,8.334-1.881l-.191.445-.171.425a16.363,16.363,0,0,1-5.653,6.134,11.2,11.2,0,0,1-2.289.67,12.384,12.384,0,0,1-6.083-.512Z"/>
              <path class="cls-4" d="M28.848,67.907a28.965,28.965,0,0,0-15.382.225l.345.349.32.336a17.012,17.012,0,0,0,7.577,3.746,11.266,11.266,0,0,0,2.386-.174,12.13,12.13,0,0,0,5.477-2.6Z"/>
              <path class="cls-4" d="M14.5,110.886A28.308,28.308,0,0,0,8.361,107.7,28.945,28.945,0,0,0,0,105.932l.2.443.178.423a16.39,16.39,0,0,0,5.744,6.055,11.23,11.23,0,0,0,2.3.638,12.392,12.392,0,0,0,6.074-.6Z"/>
              <path class="cls-4" d="M13.557,107.018a18.8,18.8,0,0,1,.22-3.039,18.22,18.22,0,0,1,1-3.747,4.527,4.527,0,0,1,.605-1.094,4.419,4.419,0,0,1,.955-.933c.06.4.113.717.151.94.04.238.071.408.113.683,0,0,.047.3.086.6a19.529,19.529,0,0,1,.1,3.151,8.225,8.225,0,0,1-2.223,4.715Z"/>
              <path class="cls-10" d="M44.968,134.569a26.65,26.65,0,0,0-3.135-3.275,29.294,29.294,0,0,0-4.908-3.49,8.4,8.4,0,0,0-1.885-.783,9.23,9.23,0,0,0-2.238-.335c.281.495.5.9.654,1.178.162.3.276.515.47.859,0,0,.211.374.43.74a25.558,25.558,0,0,0,2.775,3.646c.839.838,3.03,2.715,7.57,3.661Z"/>
              <path class="cls-4" d="M96.386,49.814a8.778,8.778,0,0,1,1.681-2.968,6.721,6.721,0,0,1,3.24-2.031l.071.362.073.344s.51,3.241-.445,5.176a2.643,2.643,0,0,1-.835.677,4.044,4.044,0,0,1-3.044.008Z"/>
              <path class="cls-4" d="M31.349,114.619a26.245,26.245,0,0,1,4.961-6.191,25.174,25.174,0,0,1,8.191-5.006l.03.652.04.618s-.029,5.894-2.94,9.879a9.718,9.718,0,0,1-2.167,1.579,11.985,11.985,0,0,1-6.994,1.139Z"/>
              <path class="cls-9" d="M50.016,121.562a30.45,30.45,0,0,1,.079-5.526,35.178,35.178,0,0,1,1.577-7.29,10.789,10.789,0,0,1,1.1-2.336,12.592,12.592,0,0,1,1.835-2.281c.172.662.319,1.195.423,1.564.112.394.2.674.316,1.134,0,0,.131.5.247,1a28.639,28.639,0,0,1,.594,5.511c-.056,1.447-.476,4.966-3.963,9.814Z"/>
              <path class="cls-4" d="M66.563,123.376a27.226,27.226,0,0,1,10.89-12.771l.1.574.109.543s.663,5.254-1.571,9.422a10.584,10.584,0,0,1-1.826,1.868,12.555,12.555,0,0,1-6.353,2.5Z"/>
              <path class="cls-4" d="M57.75,85.62a28.991,28.991,0,0,0-6.927.768,28.651,28.651,0,0,0-7.906,3.16l.426.255.4.248a17.335,17.335,0,0,0,8.31,1.8,11.152,11.152,0,0,0,2.265-.744A11.823,11.823,0,0,0,58.94,87.27Z"/>
              <path class="cls-4" d="M121.372,160.157a26.071,26.071,0,0,0,1.582,6.536,26.72,26.72,0,0,0,4.162,7.2l.215-.436.211-.408a15.648,15.648,0,0,0,.91-8.152,10.36,10.36,0,0,0-1.026-2.081,11.8,11.8,0,0,0-4.487-3.986Z"/>
              <path class="cls-11" d="M86.517,270h34.047q-3.012-27.322-5.433-55.776-3.552-41.977-5.392-81.8.093-8,.185-16,2.923-8.851,5.845-17.7l4.536-12.209L125.08,74.93q3.321-7.893,6.643-15.785c1.142-2.2,2.95-5.625,5.258-9.785,4.278-7.712,6.793-11.665,10.1-17.39,2.411-4.169,5.876-10.37,9.82-18.252Q158.951,8.747,161,3.777L156.219,0Q149.3,14.946,142.376,29.892l-17.024,33.8L119.5,77.513l-7.914,22.594-4.854,11.713a149.815,149.815,0,0,1,2.129-46.6l5.319-20.994,1.6-21.122.532-7.041V.193L114.285.6q-.748,10.446-1.869,21.381Q110.825,37.4,108.68,51.752l-6.735,27.809q-4.239-20.285-8.476-40.569c-.745-2.085-1.363-3.53-1.632-3.468,0,0-.7.161,5.852,33.8L87.581,53.446l-6.3-11.685-8.3-26.176Q71.1,8.792,69.236,2l-4,1.267,11.7,40.452L84.6,55.348l5.19,11.59q2.285,4.995,4.567,9.99.91,6.168,2.088,12.657,1.326,7.262,2.841,14.042l.533,10.753-7.98-13.313L79.408,78.727a98.349,98.349,0,0,1-5.19-13.588,97.268,97.268,0,0,1-3.661-18.862l-2.982,1.878q.959,6.742,1.918,13.484,1.531,8.443,3.065,16.888l2.787,7.178q3.142,4.353,6.286,8.7L39.7,71.368l-9.576-7.681-9.044-8.193v6.145l17.431,14.69,6.509,4.256,15.5,7.133,7.266,5,11,5.794q2.283,1.6,4.567,3.2l3.321,6.994q1.35,3.2,2.7,6.394.832,3.739,1.666,7.48l-.42,6.507C83,128,76.682,126.953,72.153,126.158c-17.906-3.145-35.644-7.169-35.644-7.169l-13.3-7.169L7.249,102.6v5.121l7.36,5.966,14.984,8.371L39.7,125.133l13.832,2.049,10.108,2.048,9.044,2.048,8.946,3.818,8.078,2.839a20.49,20.49,0,0,1,3.27,5.044A20.767,20.767,0,0,1,94.5,154.832c-.314,12.8-.535,24.322-.94,34.311q-1.353,33.4-4.211,64.543Z"/>
              <path class="cls-5" d="M89.316,94.75a35.55,35.55,0,0,1,8.017-10.3,9.036,9.036,0,0,1,1.99-1.337,8.929,8.929,0,0,1,2.445-.794c-.245.7-.435,1.278-.565,1.677-.139.427-.236.732-.4,1.223,0,0-.183.533-.377,1.056a36.386,36.386,0,0,1-2.583,5.308,16.312,16.312,0,0,1-7.921,6.067Q89.617,96.2,89.316,94.75Z"/>
              <path class="cls-5" d="M20.656,49.482a26.077,26.077,0,0,1,3.993-8.951,6.847,6.847,0,0,1,1.229-1.34,6.943,6.943,0,0,1,1.676-1.033c-.046.557-.076,1.007-.1,1.321-.021.334-.033.574-.064.96,0,0-.033.42-.075.835a26.384,26.384,0,0,1-.9,4.326,12.191,12.191,0,0,1-4.746,5.872Q21.164,50.477,20.656,49.482Z"/>
              <path class="cls-4" d="M17.932,40.946a14.143,14.143,0,0,0,.475-3.641,14.219,14.219,0,0,0-.72-4.45l-.2.185-.189.171a8.751,8.751,0,0,0-2.073,4.016,5.481,5.481,0,0,0,.117,1.254,6.2,6.2,0,0,0,1.52,2.86Z"/>
              <path class="cls-4" d="M64.1,130.726a37.2,37.2,0,0,1,7.823,1.39,37.931,37.931,0,0,1,8.994,3.932l-.472.224-.44.221a19.877,19.877,0,0,1-9.307,1.126,14.726,14.726,0,0,1-2.571-.961,15.193,15.193,0,0,1-5.32-4.341Z"/>
              <path class="cls-4" d="M13.556,165.434a22.342,22.342,0,0,0-3.887-4.03,23.418,23.418,0,0,0-6.025-3.511l.028.39.02.371a12.775,12.775,0,0,0,2.769,6.129,8.981,8.981,0,0,0,1.613,1.082,10.333,10.333,0,0,0,4.909,1.109Z"/>
              <path class="cls-5" d="M15.893,161.99a17.919,17.919,0,0,1,.925-3.147,20.988,20.988,0,0,1,2.074-3.933,6.449,6.449,0,0,1,1.01-1.172,7.691,7.691,0,0,1,1.425-1.031c-.006.4-.006.731,0,.957,0,.242.006.415,0,.7,0,0,0,.3-.016.608a16.748,16.748,0,0,1-.532,3.239,10.9,10.9,0,0,1-3.857,5.021Q16.407,162.608,15.893,161.99Z"/>
              <path class="cls-4" d="M15.02,158.7a12.984,12.984,0,0,0-.183-3.405,13.208,13.208,0,0,0-1.431-3.959l-.15.2-.146.185a7.928,7.928,0,0,0-1.237,4,5.094,5.094,0,0,0,.323,1.129,5.9,5.9,0,0,0,1.9,2.381Z"/>
              <path class="cls-4" d="M16.137,167.824a23.52,23.52,0,0,0-5.02,2.682,22.484,22.484,0,0,0-4.966,4.771l.408.061.386.066a14.613,14.613,0,0,0,6.929-1.179,8.857,8.857,0,0,0,1.477-1.246,9.156,9.156,0,0,0,2.243-4.281Z"/>
            </g>
            <g>
              <path class="cls-12" d="M35.212,74.272s-.856-3.486.319-5.307c0,0,1.01.319,1.01,5a9.009,9.009,0,0,1,1.392-.558,9.186,9.186,0,0,1,3.288-.373,4.706,4.706,0,0,1-.878,1.009,5.544,5.544,0,0,1-3.636,1.228s2.659,2.408,2.77,3.831v.481a5.152,5.152,0,0,1-1.018-.365,5.735,5.735,0,0,1-2.681-2.94,12.811,12.811,0,0,1-1.2,1.571,13.068,13.068,0,0,1-1.883,1.725c-.144.1-.454.286-.618.182-.217-.138-.052-.709.018-.952.362-1.255,1.882-2.657,2.955-3.533a11.17,11.17,0,0,1-5.207-.595,4.867,4.867,0,0,1,.9-.49A6.194,6.194,0,0,1,35.212,74.272Z"/>
              <path class="cls-13" d="M34.85,74.556s.124-.8.467-.8c0,0,.1.034.013.14s-.274.292-.267.47S34.85,74.556,34.85,74.556Z"/>
              <path class="cls-14" d="M35.69,74.841c-.338,0-.569-.793-.569-.793"/>
              <path class="cls-13" d="M37.016,74.536s-.072-.589-.388-.627c0,0-.1.014-.019.1s.237.238.221.366S37.016,74.536,37.016,74.536Z"/>
              <path class="cls-14" d="M36.246,74.643c.329-.011.431-.578.431-.578"/>
              <path class="cls-14" d="M35.941,73.583a2.906,2.906,0,0,0,0,1.119"/>
              <path class="cls-13" d="M35.627,73.569s.422-.262.59-.146-.06.146-.06.146a.533.533,0,0,0-.279.055.346.346,0,0,1-.251.037Z"/>
            </g>
            <g>
              <path class="cls-12" d="M30.746,70.8s.231-3.583,1.9-4.966c0,0,.867.608-.539,5.071a8.821,8.821,0,0,1,1.495-.114,9.2,9.2,0,0,1,3.249.632,4.722,4.722,0,0,1-1.142.7,5.549,5.549,0,0,1-3.836.079s1.813,3.095,1.491,4.485l-.145.46a5.153,5.153,0,0,1-.861-.655,5.732,5.732,0,0,1-1.673-3.61,12.876,12.876,0,0,1-1.621,1.137,13.163,13.163,0,0,1-2.314,1.08c-.167.049-.519.136-.644-.012-.166-.2.162-.692.3-.9.723-1.088,2.594-1.969,3.88-2.482A11.188,11.188,0,0,1,25.5,69.564a4.861,4.861,0,0,1,1.006-.2A6.188,6.188,0,0,1,30.746,70.8Z"/>
              <path class="cls-13" d="M30.316,70.957s.358-.726.687-.626c0,0,.088.063-.029.137s-.349.2-.4.368S30.316,70.957,30.316,70.957Z"/>
              <path class="cls-14" d="M31.032,71.481c-.322-.106-.3-.927-.3-.927"/>
              <path class="cls-13" d="M32.388,71.588s.108-.583-.181-.714c0,0-.1-.015-.048.089s.154.3.1.416S32.388,71.588,32.388,71.588Z"/>
              <path class="cls-14" d="M31.621,71.459c.318.089.585-.422.585-.422"/>
              <path class="cls-14" d="M31.649,70.357a2.917,2.917,0,0,0-.336,1.068"/>
              <path class="cls-13" d="M31.354,70.25s.481-.123.606.038-.1.121-.1.121a.521.521,0,0,0-.282-.032.342.342,0,0,1-.25-.04Z"/>
            </g>
            <g>
              <path class="cls-12" d="M62.8,133.057s-2.637-2.437-2.659-4.6c0,0,1.018-.291,3.6,3.613a8.845,8.845,0,0,1,.853-1.233,9.186,9.186,0,0,1,2.537-2.124,4.663,4.663,0,0,1-.176,1.326,5.542,5.542,0,0,1-2.356,3.029s3.546.543,4.423,1.669l.265.4a5.1,5.1,0,0,1-1.051.257,5.732,5.732,0,0,1-3.857-.975,12.818,12.818,0,0,1-.139,1.975,13.112,13.112,0,0,1-.619,2.477c-.067.161-.221.489-.415.493-.258.005-.435-.563-.511-.8-.389-1.247.106-3.255.518-4.577a11.182,11.182,0,0,1-4.673,2.374,4.925,4.925,0,0,1,.481-.905A6.192,6.192,0,0,1,62.8,133.057Z"/>
              <path class="cls-13" d="M62.651,133.493s-.338-.735-.054-.928c0,0,.1-.029.088.109s-.068.395.037.539S62.651,133.493,62.651,133.493Z"/>
              <path class="cls-14" d="M63.509,133.267c-.286.183-.912-.347-.912-.347"/>
              <path class="cls-13" d="M64.446,132.282s-.385-.452-.669-.309c0,0-.072.064.039.093s.329.068.386.184S64.446,132.282,64.446,132.282Z"/>
              <path class="cls-14" d="M63.863,132.8c.269-.191.041-.72.041-.72"/>
              <path class="cls-14" d="M63.024,132.079a2.9,2.9,0,0,0,.618.934"/>
              <path class="cls-13" d="M62.755,132.241s.208-.451.411-.446.031.154.031.154a.527.527,0,0,0-.2.2.343.343,0,0,1-.19.169Z"/>
            </g>
            <g>
              <path class="cls-12" d="M70.748,23.082s-2.637-2.436-2.659-4.6c0,0,1.018-.29,3.6,3.614a8.845,8.845,0,0,1,.853-1.233,9.192,9.192,0,0,1,2.537-2.125,4.665,4.665,0,0,1-.176,1.327,5.55,5.55,0,0,1-2.356,3.029s3.546.543,4.423,1.669l.265.4a5.109,5.109,0,0,1-1.05.256,5.728,5.728,0,0,1-3.858-.975,12.83,12.83,0,0,1-.139,1.976,13.112,13.112,0,0,1-.619,2.477c-.067.16-.221.488-.415.492-.258,0-.435-.562-.511-.8-.389-1.246.106-3.255.518-4.576a11.182,11.182,0,0,1-4.673,2.374,4.954,4.954,0,0,1,.481-.9A6.194,6.194,0,0,1,70.748,23.082Z"/>
              <path class="cls-13" d="M70.6,23.518s-.338-.735-.054-.928c0,0,.1-.028.088.11s-.068.394.037.539S70.6,23.518,70.6,23.518Z"/>
              <path class="cls-14" d="M71.461,23.293c-.286.182-.912-.348-.912-.348"/>
              <path class="cls-13" d="M72.4,22.308s-.385-.452-.669-.31c0,0-.072.065.039.094s.329.068.386.183S72.4,22.308,72.4,22.308Z"/>
              <path class="cls-14" d="M71.815,22.821c.269-.19.041-.72.041-.72"/>
              <path class="cls-14" d="M70.976,22.105a2.914,2.914,0,0,0,.618.934"/>
              <path class="cls-13" d="M70.707,22.267s.208-.451.411-.447.031.155.031.155a.518.518,0,0,0-.2.2.343.343,0,0,1-.19.169Z"/>
            </g>
            <g>
              <path class="cls-12" d="M74.321,61.147s-2.637-2.436-2.66-4.6c0,0,1.019-.29,3.6,3.614a8.945,8.945,0,0,1,.854-1.233A9.186,9.186,0,0,1,78.65,56.8a4.663,4.663,0,0,1-.176,1.326,5.55,5.55,0,0,1-2.356,3.029s3.546.543,4.423,1.669l.265.4a5.119,5.119,0,0,1-1.051.256,5.721,5.721,0,0,1-3.857-.975,12.822,12.822,0,0,1-.139,1.976,13.112,13.112,0,0,1-.619,2.477c-.067.16-.221.489-.416.492-.257.005-.434-.562-.51-.8-.389-1.246.106-3.255.518-4.576a11.182,11.182,0,0,1-4.673,2.374,4.893,4.893,0,0,1,.481-.9A6.194,6.194,0,0,1,74.321,61.147Z"/>
              <path class="cls-13" d="M74.176,61.583s-.339-.735-.054-.928c0,0,.1-.028.088.11a.838.838,0,0,0,.036.539C74.351,61.449,74.176,61.583,74.176,61.583Z"/>
              <path class="cls-14" d="M75.033,61.358c-.285.182-.912-.348-.912-.348"/>
              <path class="cls-13" d="M75.971,60.373s-.385-.452-.669-.31c0,0-.072.065.039.094s.329.068.386.183S75.971,60.373,75.971,60.373Z"/>
              <path class="cls-14" d="M75.387,60.886c.27-.19.041-.72.041-.72"/>
              <path class="cls-14" d="M74.549,60.17a2.923,2.923,0,0,0,.617.934"/>
              <path class="cls-13" d="M74.28,60.332s.207-.451.411-.447.031.155.031.155a.523.523,0,0,0-.2.2.339.339,0,0,1-.189.169Z"/>
            </g>
            <g>
              <path class="cls-12" d="M25.3,124.183s-5.855-5.255-5.9-9.929c0,0,2.261-.626,7.99,7.793a19.22,19.22,0,0,1,1.9-2.659,20.271,20.271,0,0,1,5.634-4.581,9.814,9.814,0,0,1-.392,2.86A12.051,12.051,0,0,1,29.29,124.2s7.874,1.17,9.821,3.6l.59.866a11.676,11.676,0,0,1-2.334.552,13,13,0,0,1-8.566-2.1,26.974,26.974,0,0,1-.308,4.26,27.544,27.544,0,0,1-1.376,5.342c-.147.346-.491,1.054-.922,1.062-.571.011-.965-1.213-1.133-1.734-.865-2.687.234-7.02,1.149-9.869a24.909,24.909,0,0,1-4.149,2.785,25.281,25.281,0,0,1-6.227,2.334,10.5,10.5,0,0,1,1.068-1.951C19.427,125.707,23.629,124.548,25.3,124.183Z"/>
              <path class="cls-13" d="M24.976,125.124s-.751-1.586-.119-2c0,0,.231-.06.2.237s-.15.851.082,1.162S24.976,125.124,24.976,125.124Z"/>
              <path class="cls-14" d="M26.881,124.637c-.634.394-2.025-.749-2.025-.749"/>
              <path class="cls-13" d="M28.963,122.513s-.855-.974-1.485-.667c0,0-.161.139.086.2s.73.147.857.4S28.963,122.513,28.963,122.513Z"/>
              <path class="cls-14" d="M27.668,123.621c.6-.411.091-1.553.091-1.553"/>
              <path class="cls-14" d="M25.806,122.076a6.24,6.24,0,0,0,1.371,2.014"/>
              <path class="cls-13" d="M25.208,122.425s.461-.973.913-.963.068.333.068.333a1.148,1.148,0,0,0-.449.43.759.759,0,0,1-.421.364Z"/>
            </g>
            <g>
              <path class="cls-12" d="M50.035,77.429s-4.723-4.239-4.764-8.01c0,0,1.824-.5,6.446,6.287a15.464,15.464,0,0,1,1.529-2.145,16.344,16.344,0,0,1,4.545-3.7,7.888,7.888,0,0,1-.316,2.307,9.715,9.715,0,0,1-4.22,5.27s6.352.945,7.923,2.9l.475.7a9.351,9.351,0,0,1-1.882.446,10.489,10.489,0,0,1-6.91-1.7,21.717,21.717,0,0,1-.249,3.436,22.238,22.238,0,0,1-1.11,4.31c-.119.279-.4.85-.744.857-.461.009-.778-.979-.914-1.4-.7-2.168.189-5.663.928-7.962a20.054,20.054,0,0,1-3.348,2.247A20.405,20.405,0,0,1,42.4,83.166a8.45,8.45,0,0,1,.862-1.574A11.151,11.151,0,0,1,50.035,77.429Z"/>
              <path class="cls-13" d="M49.775,78.188s-.606-1.279-.1-1.615c0,0,.187-.049.157.191s-.121.686.066.938S49.775,78.188,49.775,78.188Z"/>
              <path class="cls-14" d="M51.312,77.8c-.512.318-1.634-.6-1.634-.6"/>
              <path class="cls-13" d="M52.991,76.081s-.689-.786-1.2-.538c0,0-.129.112.07.163s.589.119.691.319S52.991,76.081,52.991,76.081Z"/>
              <path class="cls-14" d="M51.946,76.975c.483-.331.074-1.253.074-1.253"/>
              <path class="cls-14" d="M50.445,75.729a5.035,5.035,0,0,0,1.1,1.625"/>
              <path class="cls-13" d="M49.962,76.01s.372-.785.736-.777.055.269.055.269a.932.932,0,0,0-.362.347.609.609,0,0,1-.339.294Z"/>
            </g>
            <g>
              <path class="cls-12" d="M51.939,167.8s.781-6.3,3.852-8.486c0,0,1.457,1.208-1.476,8.882a15.408,15.408,0,0,1,2.633.029,16.38,16.38,0,0,1,5.631,1.619,7.913,7.913,0,0,1-2.075,1.059,9.719,9.719,0,0,1-6.736-.453s2.854,5.753,2.144,8.162l-.3.789a9.419,9.419,0,0,1-1.441-1.29,10.488,10.488,0,0,1-2.556-6.641,21.674,21.674,0,0,1-2.963,1.76,22.258,22.258,0,0,1-4.171,1.551c-.3.062-.924.161-1.128-.121-.271-.373.358-1.2.626-1.549,1.38-1.812,4.755-3.081,7.064-3.788a20.165,20.165,0,0,1-3.757-1.464,20.386,20.386,0,0,1-4.415-3.047,8.49,8.49,0,0,1,1.784-.192A11.155,11.155,0,0,1,51.939,167.8Z"/>
              <path class="cls-13" d="M51.168,168.024s.7-1.228,1.27-1c0,0,.147.125-.066.238s-.633.293-.733.59S51.168,168.024,51.168,168.024Z"/>
              <path class="cls-14" d="M52.368,169.061c-.553-.238-.437-1.686-.437-1.686"/>
              <path class="cls-13" d="M54.734,169.46s.251-1.015-.243-1.291c0,0-.165-.042-.093.151s.239.551.133.749S54.734,169.46,54.734,169.46Z"/>
              <path class="cls-14" d="M53.4,169.113c.547.207,1.07-.655,1.07-.655"/>
              <path class="cls-14" d="M53.569,167.169a5.029,5.029,0,0,0-.7,1.836"/>
              <path class="cls-13" d="M53.062,166.933s.857-.143,1.058.161-.189.2-.189.2a.924.924,0,0,0-.491-.1.609.609,0,0,1-.435-.111Z"/>
            </g>
          </g>
        </g>
      </g>
    </g>
  </g>
</svg>
